<?xml version="1.0" encoding="utf-8"?>
<!-- Generator: Adobe Illustrator 16.0.0, SVG Export Plug-In . SVG Version: 6.00 Build 0)  -->
<!DOCTYPE svg PUBLIC "-//W3C//DTD SVG 1.1//EN" "http://www.w3.org/Graphics/SVG/1.1/DTD/svg11.dtd">
<svg version="1.1" id="Layer_1" xmlns="http://www.w3.org/2000/svg" xmlns:xlink="http://www.w3.org/1999/xlink" x="0px" y="0px"
	 width="256px" height="263px" viewBox="0 0 256 263" enable-background="new 0 0 256 263" xml:space="preserve">
<g>
	<path fill="#FEC32D" d="M196.103,212.073c-1.291,5.534-1.954,8.903-4.709,12.623c-1.837,2.479-4.845,3.903-7.909,3.545
		c-2.664-0.311-5.243-1.452-7.836-2.45c-29.986-11.541-54.186-31.861-78.634-51.809c-5.828-4.755-18.125-15.762-25.108-21.544
		c17.002-12.021,24.041-19.454,24.041-19.454c27.398,23.786,59.341,51.631,92.677,65.559
		C193.938,200.764,198.908,200.045,196.103,212.073"/>
	<path fill="#FEC32D" d="M162.217,122.674c-7.713-6.095-21.203-16.215-28.819-22.09c-19.354-14.929-39.994-27.388-63.672-34.487
		C56.9,62.251,55.216,49.361,64.912,37.975c1.762-2.07,4.518-3.429,7.179-2.872c44.101,9.233,77.474,36.255,114.638,70.36
		C174.155,112.106,162.217,122.674,162.217,122.674"/>
	<path fill="#2C6DB0" d="M135.65,154.681c27.537-27.871,81.002-61.547,107.965-62.785c3.151-0.145,6.145,1.431,7.801,4.117
		c2.654,4.308,3.514,9.466,4.307,14.538c0.766,4.901-1.789,9.084-6.438,10.386c-32.212,9.022-63.496,30.96-88.889,51.904
		C151.856,168.808,135.65,154.681,135.65,154.681"/>
	<path fill="#2C6DB0" d="M120.62,101.906c-31.632,26.413-65.956,57.926-103.063,69.208c-3.132,0.952-6.591,0.166-8.844-2.209
		c-3.031-3.197-4.191-6.486-5.421-9.688C-1,148.031,0.217,144.76,11.331,140.482c26.09-10.042,47.798-26.732,68.801-44.572
		c3.181-2.701,9.489-7.888,12.968-10.749C104.607,88.245,120.62,101.906,120.62,101.906"/>
	<path fill="#2C6DB0" d="M63.631,199.362c9.072-4.649,23.037-10.136,32.142-15.251c7.354,6.484,24.382,19.402,24.382,19.402
		c-12.347,8.254-32.039,20.543-45.749,24.088c-3.314,0.857-6.833-0.432-8.927-3.141c-4.008-5.187-6.326-10.693-6.525-17.246
		C58.854,203.928,60.705,200.861,63.631,199.362"/>
	<path fill="#2C6DB0" d="M137.183,54.665c16.212-9.806,34.452-17.169,46.952-19.843c3.438-0.735,7.029,0.766,8.916,3.732
		c3.586,5.639,5.078,11.306,4.711,17.504c-0.18,3.058-1.875,5.833-4.563,7.301c-7.842,4.282-21.809,7.621-29.835,11.125
		C163.364,74.484,149.209,62.543,137.183,54.665"/>
	<path fill="#FEC32D" d="M233.625,135.673c21.895,8.504,29.971,11.388,13.997,33.451c-1.872,2.586-4.849,2.603-7.956,1.868
		c-9.962-2.352-27.64-12.538-37.426-18.23C220.277,140.283,233.625,135.673,233.625,135.673"/>
	<path fill="#FEC32D" d="M26.199,125.789c-5.407-1.546-15.694-3.178-20.404-6.046c-2.13-1.297-3.562-3.555-3.868-6.029
		c-0.774-6.257,0.833-11.892,3.884-17.562c1.667-3.097,5.071-4.889,8.568-4.501c10.499,1.167,29.473,9.1,39.745,13.797
		C39.247,119.146,26.199,125.789,26.199,125.789"/>
</g>
</svg>
