<?xml version="1.0" encoding="utf-8"?>
<!-- Generator: Adobe Illustrator 16.0.0, SVG Export Plug-In . SVG Version: 6.00 Build 0)  -->
<!DOCTYPE svg PUBLIC "-//W3C//DTD SVG 1.1//EN" "http://www.w3.org/Graphics/SVG/1.1/DTD/svg11.dtd">
<svg version="1.1" id="Layer_1" xmlns="http://www.w3.org/2000/svg" xmlns:xlink="http://www.w3.org/1999/xlink" x="0px" y="0px"
	 width="135px" height="35px" viewBox="0 0 135 35" enable-background="new 0 0 135 35" xml:space="preserve">
<g id="Layer_1_1_">
	<title>Group 3</title>
	<desc>Created with Sketch.</desc>
	<g id="Page-1">
		<g id="Desktop-HD-Copy" transform="translate(-837.000000, -365.000000)">
			<g id="Group-3" transform="translate(837.000000, 365.000000)">
				<g id="Group-2">
					<path id="Path-4" opacity="0.2932" fill="#4A8BFA" enable-background="new    " d="M3.402,5.62l3.471,24.618
						c0.195,1.387,1.735,2.002,2.658,1.06L23.813,16.73c0.793-0.808,0.589-2.252-0.396-2.811L5.664,3.868
						C4.515,3.22,3.206,4.232,3.402,5.62z"/>
					<path id="Path-4_1_" fill="#5192FF" d="M0,1.956v28c0,1.58,1.778,2.506,3.072,1.601l20-14c1.11-0.777,1.11-2.422,0-3.199
						l-20-14C1.778-0.549,0,0.376,0,1.956z"/>
				</g>
				<text transform="matrix(0.4386 0 0 1 28.9043 33.7607)" fill="#333333" font-family="'Impact'" font-size="41.0364">Search Textile</text>
			</g>
		</g>
	</g>
</g>
<g id="Layer_2">
</g>
</svg>
